<?xml version="1.0" encoding="iso-8859-1"?>
<!-- Uploaded to: SVG Repo, www.svgrepo.com, Generator: SVG Repo Mixer Tools -->
<svg height="800px" width="800px" version="1.1" id="Layer_1" xmlns="http://www.w3.org/2000/svg" xmlns:xlink="http://www.w3.org/1999/xlink" 
	 viewBox="0 0 503.467 503.467" xml:space="preserve">
<g transform="translate(5 1)">
	<path style="fill:#F2EDDA;" d="M460.067,122.733v341.333c0,18.773-15.36,34.133-34.133,34.133h-358.4
		c-18.773,0-34.133-15.36-34.133-34.133V37.4c0-18.773,15.36-34.133,34.133-34.133H340.6V88.6c0,18.773,15.36,34.133,34.133,34.133
		H460.067z"/>
	<path style="fill:#FFD0A1;" d="M460.067,122.733h-85.333c-18.773,0-34.133-15.36-34.133-34.133V3.267L460.067,122.733z"/>
	<polygon style="fill:#7EE1E6;" points="152.867,225.133 152.867,361.667 229.667,361.667 263.8,361.667 340.6,361.667 
		340.6,225.133 	"/>
</g>
<path style="fill:#51565F;" d="M430.933,503.467h-358.4c-21.333,0-38.4-17.067-38.4-38.4V38.4C34.133,17.067,51.2,0,72.533,0H345.6
	c0.853,0,2.56,0.853,3.413,0.853l85.333,85.333c1.707,1.707,1.707,4.267,0,5.973c-1.707,1.707-4.267,1.707-5.973,0l-84.48-84.48
	H72.533c-16.213,0-29.867,13.653-29.867,29.867v426.667c0,16.213,13.653,29.867,29.867,29.867h358.4
	c16.213,0,29.867-13.653,29.867-29.867V127.147h-81.067c-21.333,0-38.4-17.067-38.4-38.4V46.08c0-2.56,1.707-4.267,4.267-4.267
	s4.267,1.707,4.267,4.267v42.667c0,16.213,13.653,29.867,29.867,29.867h85.333c2.56,0,4.267,1.707,4.267,4.267v341.333
	C469.333,486.4,452.267,503.467,430.933,503.467z M294.4,418.133c-1.707,0-3.413-0.853-3.413-2.56l-24.747-48.64h-29.013
	l-24.747,48.64c-0.853,1.707-3.413,2.56-5.973,1.707c-1.707-0.853-2.56-2.56-2.56-3.413s0-1.707,0.853-1.707l22.187-45.227h-69.973
	c-2.56,0-4.267-1.707-4.267-4.267V226.134c0-2.56,1.707-4.267,4.267-4.267h89.6v-12.8c0-2.56,1.707-4.267,4.267-4.267
	s4.267,1.707,4.267,4.267v12.8h89.6c2.56,0,4.267,1.707,4.267,4.267v136.533c0,2.56-1.707,4.267-4.267,4.267h-69.973l22.187,45.227
	c0,0.853,0.853,0.853,0.853,1.707c0,1.707-0.853,3.413-2.56,3.413C296.107,418.133,295.253,418.133,294.4,418.133z M268.8,358.4
	h72.533v-128h-179.2v128h72.533l0,0H268.8L268.8,358.4z M294.4,315.733h-85.333c-2.56,0-4.267-1.707-4.267-4.267
	c0-2.56,1.707-4.267,4.267-4.267H294.4c2.56,0,4.267,1.707,4.267,4.267C298.667,314.027,296.96,315.733,294.4,315.733z
	 M277.333,281.6h-68.267c-2.56,0-4.267-1.707-4.267-4.267s1.707-4.267,4.267-4.267h68.267c2.56,0,4.267,1.707,4.267,4.267
	S279.893,281.6,277.333,281.6z"/>
</svg>