<?xml version="1.0" encoding="utf-8"?>
<!-- Uploaded to: SVG Repo, www.svgrepo.com, Generator: SVG Repo Mixer Tools -->
<svg width="800px" height="800px" viewBox="0 0 1024 1024" class="icon"  version="1.1" xmlns="http://www.w3.org/2000/svg"><path d="M526.507431 109.121602c-231.868047 0-419.788888 187.920841-419.788887 419.788888s187.920841 419.788888 419.788887 419.788888 419.788888-187.920841 419.788888-419.788888S758.375478 109.121602 526.507431 109.121602zM778.381173 545.702209H543.29915v233.967012h-33.583438V545.702209H275.7487v-33.583438h233.967012V277.036748h33.583438v235.082023H778.381173v33.583438z" fill="#98C4D8" /><path d="M492.923993 75.538164c-231.868047 0-419.788888 187.920841-419.788888 419.788887s187.920841 419.788888 419.788888 419.788888 419.788888-187.920841 419.788887-419.788888S724.792039 75.538164 492.923993 75.538164zM744.797735 512.118771H509.715712v233.967011h-33.583439V512.118771H242.166285v-33.583439h233.967012V243.453309h33.583439v235.082023H744.797735v33.583439z" fill="#EFD9A0" /><path d="M268.480057 288.159806a30.213832 64.203753 55.515 1 0 105.843026-72.703105 30.213832 64.203753 55.515 1 0-105.843026 72.703105Z" fill="#FEFEFE" /><path d="M203.600369 393.818901a20.142896 35.2493 55.515 1 0 58.110194-39.915635 20.142896 35.2493 55.515 1 0-58.110194 39.915635Z" fill="#FEFEFE" /></svg>